<svg width="54px">

    <g xmlns="http://www.w3.org/2000/svg">
    <g>
        <path class="st0" d="M6.7,404.2c-3.6,0-6.6,2.9-6.6,6.6c0,3.6,3,6.6,6.6,6.6s6.6-2.9,6.6-6.6C13.3,407.1,10.3,404.2,6.7,404.2     M6.7,414c-1.8,0-3.2-1.4-3.2-3.2c0-1.8,1.4-3.2,3.2-3.2s3.2,1.4,3.2,3.2C9.9,412.5,8.5,414,6.7,414 M34.8,368.9v-0.8    c0-1.8-1.4-3.2-3.2-3.2H7.2c-1.8,0-3.2,1.4-3.2,3.2v0.8c-1.6,0.2-2.9,1.6-2.9,3.2c0,1.7,1.3,3.1,2.9,3.2v3.2l1.4,23.9h1.2    c4.6,0,8.4,3.7,8.4,8.4c0,2.3-0.9,4.4-2.5,5.9h17.8c1.3,0,2.3-0.8,2.4-2.1l2-35.7v-3.5c0.9,0,1.6-0.7,1.6-1.6v-3.2    C36.4,369.6,35.7,368.9,34.8,368.9 M4.4,373.7c-0.9,0-1.6-0.7-1.6-1.6s0.7-1.6,1.6-1.6s1.6,0.7,1.6,1.6    C6,372.9,5.3,373.7,4.4,373.7"/>
        <path class="st3" d="M15,410.8c0,1.2-0.3,2.4-0.8,3.5h14.7c0.9,0,1.5-0.6,1.6-1.5l0.6-11.3l1.2-31.8c0-1.4-1-2.5-2.3-2.5H8.7    c-1.3,0-2.3,1.1-2.3,2.5l1.3,31.8l0.1,1C11.8,403,15,406.5,15,410.8z"/>
        <path class="st1" d="M20.3,374.3l3.9-2.8l5.8,2.8l2.3-1.5l0.1-3.1c0-1.4-1-2.5-2.3-2.5H8.7c-1.3,0-2.3,1.1-2.3,2.5l0.2,4.1    l5.8-2.8L20.3,374.3z"/>
    </g>
    <circle class="st1" cx="19.2" cy="388.4" r="8.6"/>
    <path class="st0" d="M20.7,388.4l2.9-2.9c0.1-0.1,0.1-0.3,0-0.4l-1.1-1.1c-0.1-0.1-0.3-0.1-0.4,0l-2.9,2.9l-2.9-2.9   c-0.1-0.1-0.3-0.1-0.4,0l-1.1,1.1c-0.1,0.1-0.1,0.3,0,0.4l2.9,2.9l-2.9,2.9c-0.1,0.1-0.1,0.3,0,0.4l1.1,1.1c0.1,0.1,0.3,0.1,0.4,0   l2.9-2.9l2.9,2.9c0.1,0.1,0.3,0.1,0.4,0l1.1-1.1c0.1-0.1,0.1-0.3,0-0.4L20.7,388.4z"/>
</g>
</svg>