<?xml version="1.0" encoding="utf-8"?>
<!-- Generator: Adobe Illustrator 22.1.0, SVG Export Plug-In . SVG Version: 6.00 Build 0)  -->
<svg version="1.1" id="Layer_1" xmlns="http://www.w3.org/2000/svg" xmlns:xlink="http://www.w3.org/1999/xlink" x="0px" y="0px"
	 width="54px" height="1375px" viewBox="0 0 54 1375" style="enable-background:new 0 0 54 1375;" xml:space="preserve">
<style type="text/css">
	.st0{fill:#57584F;}
	.st1{fill:#FFFFFF;}
	.st2{fill:#FFFFFF;stroke:#FFFFFF;stroke-miterlimit:10;}
	.st3{fill:none;stroke:#FFFFFF;stroke-miterlimit:10;}
	.st4{fill:#FFFFFF;stroke:#57584F;stroke-width:1.75;stroke-miterlimit:10;}
	.st5{fill:#57584F;stroke:#FFFFFF;stroke-miterlimit:10;}
</style>
<g>
	<path class="st0" d="M31.8,120.4v-40H12L0.1,92.3v28.1H31.8z M2.2,118.3V93.1h10.7V82.4h17v35.9H2.2L2.2,118.3z"/>
	<rect x="5.1" y="97" class="st0" width="21.7" height="1.7"/>
	<rect x="16" y="86" class="st0" width="10.8" height="1.7"/>
	<rect x="16" y="91.5" class="st0" width="10.8" height="1.7"/>
	<rect x="5.1" y="102.5" class="st0" width="21.7" height="1.7"/>
	<rect x="5.1" y="108" class="st0" width="21.7" height="1.7"/>
	<rect x="5.1" y="113.5" class="st0" width="21.7" height="1.7"/>
</g>
<path class="st0" d="M49.1,0h-48c-0.5,0-1,0.5-1,1v28.4c0,0.5,0.5,1,1,1h48c0.5,0,1-0.5,1-1V1C50.1,0.5,49.6,0,49.1,0 M25.1,18.9
	L4,2.1h42.1L25.1,18.9z M13.2,12l-11,14.4V3.1L13.2,12z M14.8,13.2l9.7,7.7c0.2,0.2,0.4,0.2,0.6,0.2s0.5-0.1,0.6-0.2l9.7-7.7
	L47,28.3H3.2L14.8,13.2z M37,12l11-8.8v23.3L37,12z"/>
<g>
	<path class="st0" d="M42.1,170.4h-34c-4.4,0-8,3.6-8,8v16.2c0,4.4,3.6,8,8,8h24v9.7l8.5-9.7h1.5c4.4,0,8-3.6,8-8v-16.2
		C50.1,174,46.5,170.4,42.1,170.4z M47.8,194.6c0,3.2-2.6,5.8-5.8,5.8h-1.5h-1l-0.7,0.8l-4.6,5.2v-3.7v-2.2H8.1
		c-3.2,0-5.8-2.6-5.8-5.8v-16.2c0-3.2,2.6-5.8,5.8-5.8H42c3.2,0,5.8,2.6,5.8,5.8V194.6L47.8,194.6z"/>
	<g>
		<path class="st0" d="M30.2,186c-1.1,1.2-3.5,2.3-3.9,2.7c-0.3,0.3-0.4,0.7-0.4,2v0.2h-3.6c0-0.2-0.1-1-0.1-1.3
			c0-1.4,0.2-2.1,0.9-2.8c0.9-0.9,2.6-1.5,3.6-2.6c0.3-0.3,0.8-0.9,0.8-1.8c0-1.3-1-2.2-2.9-2.2c-2.1,0-4.1,1.4-4.3,1.5l-1.7-2.5
			c0.1-0.1,2.9-2.3,6.5-2.3c3.8,0,6.4,2.2,6.4,5.5C31.6,184,31,185.1,30.2,186z M24.1,197c-1.3,0-2.4-1.1-2.4-2.4s1.1-2.4,2.4-2.4
			s2.4,1.1,2.4,2.4S25.4,197,24.1,197z"/>
	</g>
</g>
<circle class="st1" cx="26.7" cy="477.3" r="8.2"/>
<path class="st0" d="M31.5,474.8l-1.1-1.1l-0.1-0.1c0,0-0.1,0-0.1,0.1l-4.7,4.9l-1.7-1.8l-0.1-0.1c0,0-0.1,0-0.1,0.1l-1.1,1.1
	c-0.1,0.1-0.1,0.2,0,0.3l2.5,2.5l0,0l0.4,0.4l0.1,0.1c0,0,0.1,0,0.1-0.1l6-6C31.6,475,31.6,474.8,31.5,474.8z"/>
<g>
	<path class="st0" d="M33.7,922c-0.3-1.8-1.2-3.3-1.6-5.1c-0.4-1.7-2.2-2.9-3.3-4.1c-1.2-1.3-2.4-2.4-4.1-3.2
		c-1.2-0.6-2.4-1.1-3.6-1.4c-0.3-0.1-3.6-0.9-3.7-0.5c0.7-2.1,2.4-3.7,4.5-4.4c-0.5-0.4-1-1.1-1.6-1.2c-0.3-0.1-0.5-0.1-0.8-0.1
		c-0.1,0-0.1-0.1-0.1-0.1c-0.1-0.2,0.1-0.4,0.1-0.7c0-0.2-0.1-0.3-0.3-0.4c-0.2-0.1-0.3-0.1-0.5,0c-1,0.1-2,0.4-3,0.3
		c-0.5-0.1-1-0.1-1.4-0.3c-0.1,0-1.3-0.6-1.3-0.6c-0.5,0.3-0.2,1,0.1,1.5c0.8,1.3,1.6,2.6,2.4,3.9c0.3,0.5,0.5,1,0.5,1.5
		s-0.4,1.1-0.9,1.1c-1.7-0.1-3.5,0.3-5.1,1c-1.8,0.8-2.8,2.1-4.1,3.5c-1.2,1.4-2.2,2.4-3.1,3.9c-0.9,1.4-1.7,2.9-2,4.6
		c-0.3,1.4-0.9,3.1-0.7,4.5c0.1,0.7,0.4,1.5,0.5,2.2c0.2,1.1,0,2.2,0.1,3.4c0.2,2.1-0.2,4.1-0.1,6.1c0,0.5,0.1,1.1,0.3,1.6
		c0.3,0.8,1.2,1.3,2,1.5s1.7,0.1,2.6-0.1c4.5-0.8,9.1,0.8,13.7,0.3c2.2-0.3,4.5-1,6.7-1c1.2,0.1,2.3,0.3,3.4,0.3
		c1.2,0,2.4-0.3,3.1-1.2c1.2-1.4,0.8-3.5,0.8-5.4c-0.1-2.3,0.6-4.6,0.7-6.9C34.1,925.2,34,923.5,33.7,922z M17.1,933.4
		c-4.8,0-8.8-3.9-8.8-8.8c0-4.8,3.9-8.8,8.8-8.8s8.8,3.9,8.8,8.8C25.8,929.4,21.9,933.4,17.1,933.4z"/>
	<path class="st0" d="M21.5,921.3l-1.1-1.2c-0.1-0.1-0.3-0.1-0.4,0l-3,3l-3-3c-0.1-0.1-0.3-0.1-0.4,0l-1.1,1.1
		c-0.1,0.1-0.1,0.3,0,0.4l3,3l-3,3c-0.1,0.1-0.1,0.3,0,0.4l1.1,1.1c0.1,0.1,0.3,0.1,0.4,0l3-3l3,3c0.1,0.1,0.3,0.1,0.4,0l1.1-1.1
		c0.1-0.1,0.1-0.3,0-0.4l-3-3l3-3C21.6,921.6,21.6,921.4,21.5,921.3z"/>
</g>
<g>
	<path class="st0" d="M52.7,1358.7c0.1,0,0.1,0,0.2,0l0.1-5.9c0-1.1-0.9-2-2-2H2c-1.1,0-2,0.9-2,2v6c2.2,0,3.9,1.8,3.9,3.9
		s-1.8,3.9-3.9,3.9v6c0,1.1,0.9,2,2,2h49c1.1,0,2-0.9,2-2v-5.9c-0.1,0-0.2-0.1-0.3-0.1c-2.2,0-3.9-1.8-3.9-3.9
		S50.5,1358.7,52.7,1358.7z M43.8,1369.1c0,1.1-0.9,2-2,2H11c-1.1,0-2-0.9-2-2v-13c0-1.1,0.9-2,2-2h30.7c1.1,0,2,0.9,2,2
		L43.8,1369.1L43.8,1369.1z"/>
	<path class="st0" d="M41.8,1355.1H11c-0.5,0-1,0.4-1,1v13c0,0.5,0.4,1,1,1h30.7c0.5,0,1-0.4,1-1v-13
		C42.8,1355.6,42.3,1355.1,41.8,1355.1z"/>
</g>
<g>
	<g>
		<path class="st0" d="M6.7,301.7c-3.6,0-6.6,2.9-6.6,6.6c0,3.6,3,6.6,6.6,6.6s6.6-2.9,6.6-6.6C13.3,304.6,10.3,301.7,6.7,301.7
			 M6.7,311.5c-1.8,0-3.2-1.4-3.2-3.2c0-1.8,1.4-3.2,3.2-3.2s3.2,1.4,3.2,3.2C9.9,310,8.5,311.5,6.7,311.5 M34.8,266.4v-0.8
			c0-1.8-1.4-3.2-3.2-3.2H7.2c-1.8,0-3.2,1.4-3.2,3.2v0.8c-1.6,0.2-2.9,1.6-2.9,3.2c0,1.7,1.3,3.1,2.9,3.2v3.2l1.4,23.9h1.2
			c4.6,0,8.4,3.7,8.4,8.4c0,2.3-0.9,4.4-2.5,5.9h17.8c1.3,0,2.3-0.8,2.4-2.1l2-35.7v-3.5c0.9,0,1.6-0.7,1.6-1.6v-3.2
			C36.4,267.1,35.7,266.4,34.8,266.4 M4.4,271.2c-0.9,0-1.6-0.7-1.6-1.6s0.7-1.6,1.6-1.6s1.6,0.7,1.6,1.6
			C6,270.4,5.3,271.2,4.4,271.2"/>
		<path class="st2" d="M15,308.3c0,1.2-0.3,2.4-0.8,3.5h14.7c0.9,0,1.5-0.6,1.6-1.5l0.6-11.3l1.2-31.8c0-1.4-1-2.5-2.3-2.5H8.7
			c-1.3,0-2.3,1.1-2.3,2.5L7.7,299l0.1,1C11.8,300.5,15,304,15,308.3z"/>
	</g>
	<circle class="st0" cx="19.2" cy="285.9" r="8.6"/>
	<path class="st1" d="M24.2,283l-1.2-1.2l-0.1-0.1c0,0-0.1,0-0.1,0.1l-5.2,5.4l-1.8-1.9l-0.1-0.1c-0.1,0-0.1,0-0.1,0.1l-1.2,1.2
		c-0.1,0.1-0.1,0.2,0,0.3l2.8,2.8l0,0l0.4,0.4l0.1,0.1c0,0,0.1,0,0.1-0.1l6.5-6.6C24.2,283.3,24.2,283.1,24.2,283z"/>
</g>
<g>
	<g>
		<path class="st0" d="M6.7,404.2c-3.6,0-6.6,2.9-6.6,6.6c0,3.6,3,6.6,6.6,6.6s6.6-2.9,6.6-6.6C13.3,407.1,10.3,404.2,6.7,404.2
			 M6.7,414c-1.8,0-3.2-1.4-3.2-3.2c0-1.8,1.4-3.2,3.2-3.2s3.2,1.4,3.2,3.2C9.9,412.5,8.5,414,6.7,414 M34.8,368.9v-0.8
			c0-1.8-1.4-3.2-3.2-3.2H7.2c-1.8,0-3.2,1.4-3.2,3.2v0.8c-1.6,0.2-2.9,1.6-2.9,3.2c0,1.7,1.3,3.1,2.9,3.2v3.2l1.4,23.9h1.2
			c4.6,0,8.4,3.7,8.4,8.4c0,2.3-0.9,4.4-2.5,5.9h17.8c1.3,0,2.3-0.8,2.4-2.1l2-35.7v-3.5c0.9,0,1.6-0.7,1.6-1.6v-3.2
			C36.4,369.6,35.7,368.9,34.8,368.9 M4.4,373.7c-0.9,0-1.6-0.7-1.6-1.6s0.7-1.6,1.6-1.6s1.6,0.7,1.6,1.6
			C6,372.9,5.3,373.7,4.4,373.7"/>
		<path class="st3" d="M15,410.8c0,1.2-0.3,2.4-0.8,3.5h14.7c0.9,0,1.5-0.6,1.6-1.5l0.6-11.3l1.2-31.8c0-1.4-1-2.5-2.3-2.5H8.7
			c-1.3,0-2.3,1.1-2.3,2.5l1.3,31.8l0.1,1C11.8,403,15,406.5,15,410.8z"/>
		<path class="st1" d="M20.3,374.3l3.9-2.8l5.8,2.8l2.3-1.5l0.1-3.1c0-1.4-1-2.5-2.3-2.5H8.7c-1.3,0-2.3,1.1-2.3,2.5l0.2,4.1
			l5.8-2.8L20.3,374.3z"/>
	</g>
	<circle class="st1" cx="19.2" cy="388.4" r="8.6"/>
	<path class="st0" d="M20.7,388.4l2.9-2.9c0.1-0.1,0.1-0.3,0-0.4l-1.1-1.1c-0.1-0.1-0.3-0.1-0.4,0l-2.9,2.9l-2.9-2.9
		c-0.1-0.1-0.3-0.1-0.4,0l-1.1,1.1c-0.1,0.1-0.1,0.3,0,0.4l2.9,2.9l-2.9,2.9c-0.1,0.1-0.1,0.3,0,0.4l1.1,1.1c0.1,0.1,0.3,0.1,0.4,0
		l2.9-2.9l2.9,2.9c0.1,0.1,0.3,0.1,0.4,0l1.1-1.1c0.1-0.1,0.1-0.3,0-0.4L20.7,388.4z"/>
</g>
<g>
	<g id="XMLID_9_">
		<g id="XMLID_10_">
			<path id="XMLID_12_" class="st0" d="M0.1,499.9c0,0.4,0.3,0.7,0.8,0.7h2.8c0.4,0,0.8-0.3,0.8-0.7c0-0.4,0-0.7,0-0.7h44.6v0.7
				c0,0.4,0.3,0.7,0.8,0.7h2.8c0.4,0,0.8-0.3,0.8-0.7v-2.1H0.3v2.1H0.1z"/>
			<rect id="XMLID_11_" x="50.5" y="475.1" class="st0" width="2.7" height="21.3"/>
		</g>
	</g>
	<g>
		<path class="st0" d="M0,477.3v13.5c0,0.4,0.2,1,0.5,1.3l3.7,4.3h44.9v-19.1L0,477.3z"/>
	</g>
	<path class="st1" d="M42.7,478.7L42.7,478.7h-41V490c0,0.3,0.2,0.8,0.4,1.1l3.1,3.6h4.6h32.9h4.6v-15.9h-4.6V478.7z"/>
	<circle class="st4" cx="26.7" cy="477.3" r="8.2"/>
	<path class="st0" d="M31.5,474.8l-1.1-1.1l-0.1-0.1c0,0-0.1,0-0.1,0.1l-4.7,4.9l-1.7-1.8l-0.1-0.1c0,0-0.1,0-0.1,0.1l-1.1,1.1
		c-0.1,0.1-0.1,0.2,0,0.3l2.5,2.5l0,0l0.4,0.4l0.1,0.1c0,0,0.1,0,0.1-0.1l6-6C31.6,475,31.6,474.8,31.5,474.8z"/>
</g>
<g>
	<g>
		<g id="XMLID_13_">
			<g id="XMLID_14_">
				<path id="XMLID_16_" class="st0" d="M0.2,583.2c0,0.4,0.3,0.7,0.8,0.7h2.8c0.4,0,0.8-0.3,0.8-0.7s0-0.7,0-0.7h44.6v0.7
					c0,0.4,0.3,0.7,0.8,0.7h2.8c0.4,0,0.8-0.3,0.8-0.7v-2.1H0.4v2.1H0.2z"/>
				<rect id="XMLID_15_" x="50.6" y="558.4" class="st0" width="2.7" height="21.3"/>
			</g>
		</g>
		<g>
			<path class="st0" d="M0.1,560.6v13.5c0,0.4,0.2,1,0.5,1.3l3.7,4.3h44.9v-19.1H0.1z"/>
		</g>
		<path class="st5" d="M42.8,562L42.8,562h-41v11.3c0,0.3,0.2,0.8,0.4,1.1l3.1,3.6h4.6h32.9h4.6v-16H42.8z"/>
		<polygon class="st1" points="1.7,565.4 6.9,563.8 10.9,564.9 16.4,563.3 25.6,564 29.9,562.8 40,564.1 47.4,563.8 47.4,562 
			1.7,562 		"/>
	</g>
	<circle class="st4" cx="26.8" cy="560.6" r="8.2"/>
	<path class="st0" d="M28.3,560.6l2.9-2.9c0.1-0.1,0.1-0.3,0-0.4l-1.1-1.1c-0.1-0.1-0.3-0.1-0.4,0l-2.9,2.9l-2.9-2.9
		c-0.1-0.1-0.3-0.1-0.4,0l-1.1,1.1c-0.1,0.1-0.1,0.3,0,0.4l2.9,2.9l-2.9,2.9c-0.1,0.1-0.1,0.3,0,0.4l1.1,1.1c0.1,0.1,0.3,0.1,0.4,0
		l2.9-2.9l2.9,2.9c0.1,0.1,0.3,0.1,0.4,0l1.1-1.1c0.1-0.1,0.1-0.3,0-0.4L28.3,560.6z"/>
</g>
<g>
	<g>
		<path class="st0" d="M18.7,816.8c-0.5-0.1-0.6,0-0.7,0c0.1,0,0.2-0.1,0.2-0.2l-1-0.3v-0.1c0.1-0.3,0.2-0.6,0.4-0.9l0.9,0.5
			c0,0,0,0.1-0.1,0.1c0.1,0,0.2,0,0.2,0L18.7,816.8z"/>
		<path class="st0" d="M19.4,814.5l-0.8-0.6c0.3-0.4,0.7-0.8,1.2-1.1l0.6,0.8C20.1,813.9,19.7,814.2,19.4,814.5z"/>
		<path class="st0" d="M21.6,812.8l-0.4-0.9c0.1,0,0.1-0.1,0.2-0.1l-0.1-0.1L22,811c0.1,0.1,0.2,0.2,0.3,0.3
			c0.1,0.1,0.3,0.3,0.4,0.4l0.7,0.6l-0.9,0.3C22.2,812.6,21.9,812.7,21.6,812.8z"/>
		<path class="st0" d="M20,811.2L20,811.2c-0.4,0-0.6-0.2-0.7-0.5c0-0.1,0-0.2,0-0.3c0-0.2,0-0.3,0.1-0.4v-0.1h-0.1l0.1-1
			c0.1,0,0.2,0.1,0.4,0.1c0.1,0.1,0.6,0.3,0.6,0.8c0,0.2-0.1,0.4-0.1,0.5l0,0v0.1v0.1c0-0.2-0.1-0.3-0.3-0.4V811.2z M19.9,810.2
			L19.9,810.2L19.9,810.2z M16.6,810.3c-0.2,0-0.3,0-0.5,0h-0.2l0.2-1h0.1c0.1,0,0.2,0,0.3,0c0.4,0,0.8-0.1,1.1-0.1l0.2,1
			C17.5,810.3,17,810.3,16.6,810.3z"/>
		<path class="st0" d="M12.8,810c-0.3-0.9,0.2-1.3,0.4-1.5l0.2-0.1l0.2,0.1c0,0,0.5,0.3,0.9,0.4l-0.4,0.9c-0.1-0.1-0.3-0.1-0.4-0.2
			l0,0L12.8,810z"/>
		<path class="st0" d="M17.7,850c-0.5,0-1,0-1.5,0l0.1-1c0.7,0,1.3,0.1,2,0v1C18.1,850,17.9,850,17.7,850z M4.3,849.8L4.3,849.8
			l-0.1-1h0.1c0.4,0,0.9-0.1,1.5-0.2H6l0.2,1H6C5.4,849.7,4.8,849.8,4.3,849.8z M20.4,849.8l-0.2-1c0.6-0.1,1.2-0.2,1.7-0.3h0.2
			l0.2,1h-0.2C21.5,849.6,21,849.7,20.4,849.8z M14.2,849.8l-2-0.2l0.1-1l2,0.2L14.2,849.8z M10.2,849.4c-0.7,0-1.3-0.1-2,0v-1
			c0.7,0,1.4,0,2.1,0L10.2,849.4z M29.7,849.2c-0.6,0-1.1,0-1.5-0.1l0.1-1c0.6,0.1,1.3,0.1,1.9,0.1l0.1,1
			C30.1,849.2,29.9,849.2,29.7,849.2z M2,849.2c-0.5-0.3-0.9-0.8-1.1-1.3c-0.1-0.2-0.1-0.4-0.2-0.6l1-0.2c0,0.2,0.1,0.3,0.2,0.5
			c0.1,0.4,0.5,0.6,0.7,0.8L2,849.2z M24.3,849.1l-0.1-1c0.8-0.1,1.5-0.2,2.1-0.2v1C25.7,848.9,25.1,849,24.3,849.1z M32.5,848.5
			l-0.5-0.8c0.2-0.1,0.4-0.3,0.5-0.5c0.2-0.3,0.4-0.5,0.5-0.9l0.9,0.3c-0.2,0.4-0.4,0.8-0.7,1.2C33,848.1,32.8,848.3,32.5,848.5z
			 M1.5,845.1h-1c0-0.6,0-1.2,0.1-1.8V843l1,0.1v0.3C1.6,844,1.5,844.5,1.5,845.1z M33.2,844.5L33.2,844.5c0-0.5,0-0.9,0-1.2
			s0-0.5,0-0.8h1c0,0.2,0,0.5,0,0.8c0,0.4,0,0.8,0,1.2L33.2,844.5z M0.7,841.1c0-0.3,0-0.7-0.1-1c0-0.3,0-0.6,0-0.8v-0.2h1v0.2
			c0,0.2,0,0.5,0,0.8c0,0.4,0.1,0.7,0.1,1.1L0.7,841.1z M34.2,840.5l-1-0.1c0.1-0.7,0.2-1.4,0.3-2l1,0.2
			C34.3,839.2,34.2,839.8,34.2,840.5z M0.6,837.1c0-0.1,0-0.3-0.1-0.4c0-0.3-0.1-0.7-0.2-1.1l-0.1-0.5l1-0.2l0.1,0.4
			c0.1,0.4,0.2,0.8,0.3,1.2c0,0.1,0,0.3,0.1,0.4L0.6,837.1z M34.7,836.5l-1-0.1c0-0.4,0.1-0.8,0.1-1.2c0-0.3,0.1-0.5,0.1-0.8l1,0.1
			c0,0.3,0,0.5-0.1,0.8C34.8,835.7,34.8,836.1,34.7,836.5z M1.1,833.1l-1-0.1c0.1-0.7,0.2-1.3,0.4-2l1,0.2
			C1.3,831.8,1.1,832.5,1.1,833.1z M33.9,832.5c0-0.5-0.1-1.1-0.2-1.7v-0.3l1-0.2l0.1,0.3c0.1,0.6,0.2,1.2,0.2,1.8L33.9,832.5z
			 M1.9,829.2l-1-0.3c0.2-0.6,0.4-1.3,0.8-2l0.9,0.4C2.3,828.1,2.1,828.6,1.9,829.2z M33,828.7l-0.2-0.5c-0.2-0.5-0.3-0.9-0.5-1.4
			l1-0.3c0.1,0.5,0.3,0.9,0.5,1.3l0.2,0.5L33,828.7z M3.6,825.7l-0.8-0.5l0.1-0.2c0.3-0.5,0.7-1,1.1-1.5l0.8,0.6
			c-0.4,0.5-0.7,1-1,1.5L3.6,825.7z M31.7,824.9c-0.2-0.4-0.6-0.9-1.2-1.5l0.7-0.7c0.6,0.6,1.1,1.1,1.4,1.7L31.7,824.9z M6,822.6
			L5.2,822c0.2-0.3,0.5-0.6,0.7-0.8l0.5-0.6l0.4,0.3l0.3,0.4l-0.5,0.6C6.5,822,6.2,822.3,6,822.6z M29.1,822.1
			c-0.1-0.1-0.2-0.2-0.2-0.2c-0.4-0.5-0.8-0.9-1.2-1.2l0.7-0.7c0.4,0.4,0.8,0.8,1.2,1.2c0.1,0.1,0.1,0.1,0.2,0.2L29.1,822.1z
			 M8.7,819.7L8,818.9c0.6-0.5,1.1-0.9,1.7-1.2l0.5,0.9C9.7,818.8,9.2,819.2,8.7,819.7z M26.2,819.4c-0.4-0.3-0.8-0.5-1.2-0.7
			l-0.5-0.2l0.4-0.9l0.5,0.2c0.5,0.2,0.9,0.5,1.4,0.8L26.2,819.4z M12,817.9l-0.3-1c0.7-0.2,1.4-0.4,2.1-0.4l0.1,1
			C13.3,817.5,12.6,817.7,12,817.9z M22.6,817.8c-0.4-0.1-0.8-0.3-1.2-0.4c-0.1,0-0.3-0.1-0.7-0.2l0.2-1c0.4,0.1,0.6,0.2,0.7,0.2
			c0.4,0.1,0.8,0.2,1.3,0.4L22.6,817.8z M16.1,817.3l-0.5-0.9c0.2-0.1,0.3-0.4,0.3-0.6c0-0.2,0-0.4-0.1-0.6l0.9-0.3
			c0.1,0.3,0.2,0.6,0.2,0.9C16.9,816.4,16.6,817,16.1,817.3z M14.9,813.5l-1.1-1.7l0.9-0.5l1.1,1.7L14.9,813.5z"/>
	</g>
	<path class="st0" d="M17.5,842.1c-4.8,0-8.8-3.9-8.8-8.8c0-4.8,3.9-8.8,8.8-8.8s8.8,3.9,8.8,8.8C26.2,838.2,22.3,842.1,17.5,842.1z
		"/>
	<path class="st1" d="M21,829.5c-0.1-0.1-0.1-0.1-0.1-0.1c-0.1,0-0.1,0-0.1,0.1l-4.8,5l-1.7-1.8c-0.1-0.1-0.1-0.1-0.1-0.1
		s-0.1,0-0.1,0.1l-1.1,1.1c-0.1,0.1-0.1,0.2,0,0.3l2.6,2.6l0,0l0.3,0.3c0.1,0.1,0.1,0.1,0.1,0.1s0.1,0,0.1-0.1l6-6.1
		c0.1-0.1,0.1-0.2,0-0.3L21,829.5z"/>
</g>
<g>
	<g>
		<path class="st0" d="M43.8,736.8c0.4,0.1,0.4,0.4,0.4,0.8v1.5c0,0.4-0.4,0.6-0.8,0.5l-0.6-0.2v19c0,0.5-0.4,0.9-0.9,0.9H3
			c-0.5,0-0.9-0.4-0.9-0.9v-31.7c-1.1-0.3-2-1.3-2-2.5c0-1.4,1.1-2.6,2.6-2.6c0.3,0,0.7,0.1,0.9,0.2L43.8,736.8z M4,724.2
			c0-0.7-0.6-1.3-1.3-1.3s-1.3,0.6-1.3,1.3s0.6,1.3,1.3,1.3S4,724.9,4,724.2"/>
		<path class="st2" d="M40.2,740v16.9c0,0.2-0.2,0.4-0.4,0.4H5c-0.2,0-0.4-0.2-0.4-0.4v-29.1c0,0,33.4,11.3,35.5,12
			C40.2,739.8,40.2,739.9,40.2,740z"/>
	</g>
	<circle class="st0" cx="22.2" cy="745.5" r="8.6"/>
	<path class="st1" d="M27.2,742.7l-1.2-1.2l-0.1-0.1c0,0-0.1,0-0.1,0.1l-5.2,5.4l-1.8-1.9l-0.1-0.1c-0.1,0-0.1,0-0.1,0.1l-1.2,1.2
		c-0.1,0.1-0.1,0.2,0,0.3l2.8,2.8l0,0l0.4,0.4l0.1,0.1c0,0,0.1,0,0.1-0.1l6.5-6.6C27.3,742.9,27.3,742.7,27.2,742.7z"/>
</g>
<g>
	<g>
		<path class="st0" d="M43.8,649.2c0.4,0.1,0.4,0.4,0.4,0.8v1.5c0,0.4-0.4,0.6-0.8,0.5l-0.6-0.2v19c0,0.5-0.4,0.9-0.9,0.9H3
			c-0.5,0-0.9-0.4-0.9-0.9v-31.7c-1.1-0.3-2-1.3-2-2.5c0-1.4,1.1-2.6,2.6-2.6c0.3,0,0.7,0.1,0.9,0.2L43.8,649.2z M4,636.6
			c0-0.7-0.6-1.3-1.3-1.3s-1.3,0.6-1.3,1.3s0.6,1.3,1.3,1.3S4,637.3,4,636.6"/>
		<path class="st3" d="M40.2,652.4v16.9c0,0.2-0.2,0.4-0.4,0.4H5c-0.2,0-0.4-0.2-0.4-0.4v-29.1c0,0,33.4,11.3,35.5,12
			C40.2,652.2,40.2,652.3,40.2,652.4z"/>
		<polygon class="st1" points="4.5,645.9 8,647.5 11.1,644.3 21.3,645.7 4.8,639.9 4.7,640.9 		"/>
	</g>
	<circle class="st1" cx="22.2" cy="657.8" r="8.6"/>
	<path class="st0" d="M23.7,657.8l2.9-2.9c0.1-0.1,0.1-0.3,0-0.4l-1.1-1.1c-0.1-0.1-0.3-0.1-0.4,0l-2.9,2.9l-2.9-2.9
		c-0.1-0.1-0.3-0.1-0.4,0l-1.1,1.1c-0.1,0.1-0.1,0.3,0,0.4l2.9,2.9l-2.9,2.9c-0.1,0.1-0.1,0.3,0,0.4l1.1,1.1c0.1,0.1,0.3,0.1,0.4,0
		l2.9-2.9l2.9,2.9c0.1,0.1,0.3,0.1,0.4,0l1.1-1.1c0.1-0.1,0.1-0.3,0-0.4L23.7,657.8z"/>
</g>
<g>
	<path class="st0" d="M39.2,990.8H0.8c-0.4,0-0.8,0.3-0.8,0.8c0,0.4,0.3,0.7,0.7,0.8l3.5,21.1c0.1,0.8,0.9,1.4,1.7,1.4h28.2
		c0.8,0,1.5-0.6,1.7-1.4l3.5-21.1l0,0c0.4,0,0.8-0.3,0.8-0.8C40,991.1,39.7,990.8,39.2,990.8"/>
	<path class="st2" d="M37,993.6c0-0.2,0-0.3,0-0.3h-0.2H3H2.8c0,0,0,0.1,0,0.3c0,0.3,0,0.6,0.1,0.8c0.5,4,2.9,17.2,2.9,17.2
		c0.1,0.6,0.8,1.1,1.5,1.1h0.2h24.8h0.2c0.7,0,1.4-0.5,1.5-1.1c0,0,2.4-13.2,2.9-17.2C37,994.3,37.1,993.9,37,993.6z"/>
	<path class="st0" d="M20,1011.9c-4.8,0-8.8-3.9-8.8-8.8s3.9-8.8,8.8-8.8s8.8,3.9,8.8,8.8S24.8,1011.9,20,1011.9z"/>
	<path class="st1" d="M23.5,999.2c-0.1-0.1-0.1-0.1-0.1-0.1c-0.1,0-0.1,0-0.1,0.1l-4.8,5l-1.7-1.8c-0.1-0.1-0.1-0.1-0.1-0.1
		c-0.1,0-0.1,0-0.1,0.1l-1.1,1.1c-0.1,0.1-0.1,0.2,0,0.3l2.6,2.6l0,0l0.3,0.3c0.1,0.1,0.1,0.1,0.1,0.1c0.1,0,0.1,0,0.1-0.1l6-6.1
		c0.1-0.1,0.1-0.2,0-0.3L23.5,999.2z"/>
</g>
<g>
	<g>
		<path class="st0" d="M39.2,1064.8H0.8c-0.4,0-0.8,0.3-0.8,0.8c0,0.4,0.3,0.7,0.7,0.8l3.5,21.1c0.1,0.8,0.9,1.4,1.7,1.4h28.2
			c0.8,0,1.5-0.6,1.7-1.4l3.5-21.1l0,0c0.4,0,0.8-0.3,0.8-0.8C40,1065.1,39.7,1064.8,39.2,1064.8"/>
		<path class="st1" d="M18.2,1070.6l8.7-1.3l4.5,1.5l4.3-0.9l1-0.3c0.3,0,0.1-1.6,0.1-1.9c-0.1-0.3-0.3-0.4-0.8-0.4H2.8
			c-0.3,0-0.1,0.9-0.1,0.9l0.7,2.7c3-0.8,6.3-1.6,6.3-1.6L18.2,1070.6z"/>
		<path class="st3" d="M37,1067.6c0-0.2,0-0.3,0-0.3h-0.2H3H2.8c0,0,0,0.1,0,0.3c0,0.3,0,0.6,0.1,0.8c0.5,4,2.9,17.2,2.9,17.2
			c0.1,0.6,0.8,1.1,1.5,1.1h0.2h24.8h0.2c0.7,0,1.4-0.5,1.5-1.1c0,0,2.4-13.2,2.9-17.2C37,1068.3,37.1,1067.9,37,1067.6z"/>
	</g>
	<path class="st4" d="M20,1085.9c-4.8,0-8.8-3.9-8.8-8.8s3.9-8.8,8.8-8.8s8.8,3.9,8.8,8.8S24.9,1085.9,20,1085.9z"/>
	<path class="st0" d="M24.5,1073.8l-1.1-1.2c-0.1-0.1-0.3-0.1-0.4,0l-3,3l-3-3c-0.1-0.1-0.3-0.1-0.4,0l-1.1,1.1
		c-0.1,0.1-0.1,0.3,0,0.4l3,3l-3,3c-0.1,0.1-0.1,0.3,0,0.4l1.1,1.1c0.1,0.1,0.3,0.1,0.4,0l3-3l3,3c0.1,0.1,0.3,0.1,0.4,0l1.1-1.1
		c0.1-0.1,0.1-0.3,0-0.4l-3-3l3-3C24.6,1074,24.6,1073.8,24.5,1073.8z"/>
</g>
<g>
	<path class="st0" d="M31,1147v-0.8c0-1.8-1.4-3.2-3.2-3.2h-4.6v-0.5c0-2-1.6-3.7-3.7-3.7h-6.4c-2,0-3.7,1.7-3.7,3.7v0.5H4.9
		c-1.7,0-3.2,1.4-3.2,3.2v0.8c-0.9,0-1.6,0.7-1.6,1.6v3.2c0,0.9,0.7,1.6,1.6,1.6v3.5l1.9,35.7c0.1,1.3,1.1,2.1,2.4,2.1h20.6
		c1.3,0,2.3-0.8,2.4-2.1l1.9-35.7v-3.5c0.9,0,1.6-0.7,1.6-1.6v-3.2C32.6,1147.7,31.9,1147,31,1147z M21.8,1143H11v-0.5
		c0-1.2,1-2.2,2.2-2.2h6.4c1.2,0,2.2,1,2.2,2.2C21.8,1142.5,21.8,1143,21.8,1143z"/>
	<path class="st1" d="M29.1,1148.1c0-1.7-1.2-2.9-2.8-2.9h-4h-12h-4c-1.5,0-2.8,1.3-2.8,2.9l1.7,42.6c0.1,1.2,1,1.9,2.1,1.9h18
		c1.1,0,2-0.7,2.1-1.9L29.1,1148.1z"/>
	<g>
		<path class="st1" d="M16.4,1180.6c-5.3,0-9.6-4.3-9.6-9.6s4.3-9.6,9.6-9.6s9.6,4.3,9.6,9.6S21.7,1180.6,16.4,1180.6z"/>
		<path class="st0" d="M16.4,1162.4c4.7,0,8.6,3.9,8.6,8.6s-3.9,8.6-8.6,8.6s-8.6-3.9-8.6-8.6C7.8,1166.2,11.6,1162.4,16.4,1162.4
			 M16.4,1160.4c-5.8,0-10.6,4.8-10.6,10.6c0,5.8,4.8,10.6,10.6,10.6S27,1176.8,27,1171C27,1165.1,22.2,1160.4,16.4,1160.4
			L16.4,1160.4z"/>
	</g>
	<path class="st0" d="M21.4,1168.1l-1.2-1.2l-0.1-0.1c0,0-0.1,0-0.1,0.1l-5.2,5.4l-1.8-1.9l-0.1-0.1c-0.1,0-0.1,0-0.1,0.1l-1.2,1.2
		c-0.1,0.1-0.1,0.2,0,0.3l2.8,2.8l0,0l0.4,0.4l0.1,0.1c0,0,0.1,0,0.1-0.1l6.5-6.6C21.4,1168.4,21.4,1168.2,21.4,1168.1z"/>
</g>
<g>
	<g>
		<path class="st0" d="M31,1253v-0.8c0-1.8-1.4-3.2-3.2-3.2h-4.6v-0.5c0-2-1.6-3.7-3.7-3.7h-6.4c-2,0-3.7,1.7-3.7,3.7v0.5H4.9
			c-1.7,0-3.2,1.4-3.2,3.2v0.8c-0.9,0-1.6,0.7-1.6,1.6v3.2c0,0.9,0.7,1.6,1.6,1.6v3.5l1.9,35.7c0.1,1.3,1.1,2.1,2.4,2.1h20.6
			c1.3,0,2.3-0.8,2.4-2.1l1.9-35.7v-3.5c0.9,0,1.6-0.7,1.6-1.6v-3.2C32.6,1253.7,31.9,1253,31,1253z M21.8,1249H11v-0.5
			c0-1.2,1-2.2,2.2-2.2h6.4c1.2,0,2.2,1,2.2,2.2C21.8,1248.5,21.8,1249,21.8,1249z"/>
		<path class="st5" d="M29.1,1254.1c0-1.7-1.2-2.9-2.8-2.9h-4h-12h-4c-1.5,0-2.8,1.3-2.8,2.9l1.7,42.6c0.1,1.2,1,1.9,2.1,1.9h18
			c1.1,0,2-0.7,2.1-1.9L29.1,1254.1z"/>
		<path class="st1" d="M11.3,1256.3l8.1-1.6l5.5,2.6l4.1-0.8l0.1-2.5c0-1.7-1.2-2.9-2.8-2.9h-4h-12h-4c-1.5,0-2.8,1.3-2.8,2.9
			l0.1,1.9c2-0.6,3.6-1.2,3.6-1.2L11.3,1256.3z"/>
	</g>
	<g>
		<path class="st1" d="M16.4,1286.6c-5.3,0-9.6-4.3-9.6-9.6s4.3-9.6,9.6-9.6s9.6,4.3,9.6,9.6S21.7,1286.6,16.4,1286.6z"/>
		<path class="st0" d="M16.4,1268.4c4.7,0,8.6,3.9,8.6,8.6s-3.9,8.6-8.6,8.6s-8.6-3.9-8.6-8.6C7.8,1272.2,11.6,1268.4,16.4,1268.4
			 M16.4,1266.4c-5.8,0-10.6,4.8-10.6,10.6c0,5.8,4.8,10.6,10.6,10.6S27,1282.8,27,1277C27,1271.1,22.2,1266.4,16.4,1266.4
			L16.4,1266.4z"/>
	</g>
	<path class="st0" d="M17.9,1277.2l2.9-2.9c0.1-0.1,0.1-0.3,0-0.4l-1.1-1.1c-0.1-0.1-0.3-0.1-0.4,0l-2.9,2.9l-2.9-2.9
		c-0.1-0.1-0.3-0.1-0.4,0l-1.1,1.1c-0.1,0.1-0.1,0.3,0,0.4l2.9,2.9l-2.9,2.9c-0.1,0.1-0.1,0.3,0,0.4l1.1,1.1c0.1,0.1,0.3,0.1,0.4,0
		l2.9-2.9l2.9,2.9c0.1,0.1,0.3,0.1,0.4,0l1.1-1.1c0.1-0.1,0.1-0.3,0-0.4L17.9,1277.2z"/>
</g>
</svg>
